<mxfile host="app.diagrams.net" modified="2023-08-03T06:35:10.718Z" agent="Mozilla/5.0 (Windows NT 10.0; Win64; x64) AppleWebKit/537.36 (KHTML, like Gecko) Chrome/115.0.0.0 Safari/537.36" etag="sNqak_HySygSEbk8NglX" version="21.6.6" type="github">
  <diagram id="C5RBs43oDa-KdzZeNtuy" name="Page-1">
    <mxGraphModel dx="498" dy="661" grid="1" gridSize="10" guides="1" tooltips="1" connect="1" arrows="1" fold="1" page="1" pageScale="1" pageWidth="827" pageHeight="1169" math="0" shadow="0">
      <root>
        <mxCell id="WIyWlLk6GJQsqaUBKTNV-0" />
        <mxCell id="WIyWlLk6GJQsqaUBKTNV-1" parent="WIyWlLk6GJQsqaUBKTNV-0" />
        <mxCell id="WIyWlLk6GJQsqaUBKTNV-2" value="" style="rounded=0;html=1;jettySize=auto;orthogonalLoop=1;fontSize=11;endArrow=block;endFill=0;endSize=8;strokeWidth=1;shadow=0;labelBackgroundColor=none;edgeStyle=orthogonalEdgeStyle;" parent="WIyWlLk6GJQsqaUBKTNV-1" source="WIyWlLk6GJQsqaUBKTNV-3" target="WIyWlLk6GJQsqaUBKTNV-6" edge="1">
          <mxGeometry relative="1" as="geometry" />
        </mxCell>
        <mxCell id="WIyWlLk6GJQsqaUBKTNV-3" value="appSvcDOExample, queryByName()" style="rounded=1;whiteSpace=wrap;html=1;fontSize=12;glass=0;strokeWidth=1;shadow=0;" parent="WIyWlLk6GJQsqaUBKTNV-1" vertex="1">
          <mxGeometry x="160" y="80" width="120" height="40" as="geometry" />
        </mxCell>
        <mxCell id="WIyWlLk6GJQsqaUBKTNV-4" value="No" style="rounded=0;html=1;jettySize=auto;orthogonalLoop=1;fontSize=11;endArrow=block;endFill=0;endSize=8;strokeWidth=1;shadow=0;labelBackgroundColor=none;edgeStyle=orthogonalEdgeStyle;exitX=0.5;exitY=1;exitDx=0;exitDy=0;curved=1;entryX=0.5;entryY=0;entryDx=0;entryDy=0;" parent="WIyWlLk6GJQsqaUBKTNV-1" source="WIyWlLk6GJQsqaUBKTNV-6" target="hjsQ7agd-JQysBf-I2ZY-0" edge="1">
          <mxGeometry y="20" relative="1" as="geometry">
            <mxPoint as="offset" />
            <mxPoint x="120" y="200" as="sourcePoint" />
            <mxPoint x="130" y="340" as="targetPoint" />
            <Array as="points">
              <mxPoint x="220" y="295" />
              <mxPoint x="131" y="295" />
              <mxPoint x="131" y="380" />
            </Array>
          </mxGeometry>
        </mxCell>
        <mxCell id="WIyWlLk6GJQsqaUBKTNV-5" value="yes" style="edgeStyle=orthogonalEdgeStyle;rounded=0;html=1;jettySize=auto;orthogonalLoop=1;fontSize=11;endArrow=block;endFill=0;endSize=8;strokeWidth=1;shadow=0;labelBackgroundColor=none;" parent="WIyWlLk6GJQsqaUBKTNV-1" source="WIyWlLk6GJQsqaUBKTNV-6" target="WIyWlLk6GJQsqaUBKTNV-7" edge="1">
          <mxGeometry y="10" relative="1" as="geometry">
            <mxPoint as="offset" />
          </mxGeometry>
        </mxCell>
        <mxCell id="WIyWlLk6GJQsqaUBKTNV-6" value="查出来了" style="rhombus;whiteSpace=wrap;html=1;shadow=0;fontFamily=Helvetica;fontSize=12;align=center;strokeWidth=1;spacing=6;spacingTop=-4;" parent="WIyWlLk6GJQsqaUBKTNV-1" vertex="1">
          <mxGeometry x="170" y="170" width="100" height="80" as="geometry" />
        </mxCell>
        <mxCell id="hjsQ7agd-JQysBf-I2ZY-1" style="edgeStyle=orthogonalEdgeStyle;rounded=0;orthogonalLoop=1;jettySize=auto;html=1;entryX=0.75;entryY=0;entryDx=0;entryDy=0;curved=1;exitX=0.5;exitY=1;exitDx=0;exitDy=0;" edge="1" parent="WIyWlLk6GJQsqaUBKTNV-1" source="WIyWlLk6GJQsqaUBKTNV-7" target="hjsQ7agd-JQysBf-I2ZY-0">
          <mxGeometry relative="1" as="geometry">
            <mxPoint x="405" y="310" as="sourcePoint" />
            <mxPoint x="320" y="500" as="targetPoint" />
          </mxGeometry>
        </mxCell>
        <mxCell id="WIyWlLk6GJQsqaUBKTNV-7" value="给appSvcDo&amp;nbsp; setId" style="rounded=1;whiteSpace=wrap;html=1;fontSize=12;glass=0;strokeWidth=1;shadow=0;" parent="WIyWlLk6GJQsqaUBKTNV-1" vertex="1">
          <mxGeometry x="320" y="190" width="120" height="40" as="geometry" />
        </mxCell>
        <mxCell id="hjsQ7agd-JQysBf-I2ZY-4" style="edgeStyle=orthogonalEdgeStyle;rounded=0;orthogonalLoop=1;jettySize=auto;html=1;exitX=0.5;exitY=1;exitDx=0;exitDy=0;entryX=0.5;entryY=0;entryDx=0;entryDy=0;entryPerimeter=0;" edge="1" parent="WIyWlLk6GJQsqaUBKTNV-1" source="hjsQ7agd-JQysBf-I2ZY-0" target="hjsQ7agd-JQysBf-I2ZY-3">
          <mxGeometry relative="1" as="geometry" />
        </mxCell>
        <mxCell id="hjsQ7agd-JQysBf-I2ZY-0" value="appSvcSetting=&lt;br&gt;appSvc.&lt;br&gt;getAppSvcSetting()" style="rounded=1;whiteSpace=wrap;html=1;absoluteArcSize=1;arcSize=14;strokeWidth=2;" vertex="1" parent="WIyWlLk6GJQsqaUBKTNV-1">
          <mxGeometry x="160" y="400" width="100" height="100" as="geometry" />
        </mxCell>
        <mxCell id="hjsQ7agd-JQysBf-I2ZY-11" style="edgeStyle=orthogonalEdgeStyle;rounded=0;orthogonalLoop=1;jettySize=auto;html=1;exitX=0.5;exitY=1;exitDx=0;exitDy=0;" edge="1" parent="WIyWlLk6GJQsqaUBKTNV-1" source="hjsQ7agd-JQysBf-I2ZY-2" target="hjsQ7agd-JQysBf-I2ZY-10">
          <mxGeometry relative="1" as="geometry">
            <mxPoint x="30" y="870" as="sourcePoint" />
            <mxPoint x="125.60000000000002" y="924" as="targetPoint" />
          </mxGeometry>
        </mxCell>
        <mxCell id="hjsQ7agd-JQysBf-I2ZY-2" value="appSvcDoMapper.update" style="rounded=1;whiteSpace=wrap;html=1;absoluteArcSize=1;arcSize=14;strokeWidth=2;" vertex="1" parent="WIyWlLk6GJQsqaUBKTNV-1">
          <mxGeometry x="90" y="720" width="100" height="100" as="geometry" />
        </mxCell>
        <mxCell id="hjsQ7agd-JQysBf-I2ZY-6" style="edgeStyle=orthogonalEdgeStyle;rounded=0;orthogonalLoop=1;jettySize=auto;html=1;exitX=0;exitY=0.5;exitDx=0;exitDy=0;exitPerimeter=0;entryX=0.5;entryY=0;entryDx=0;entryDy=0;" edge="1" parent="WIyWlLk6GJQsqaUBKTNV-1" source="hjsQ7agd-JQysBf-I2ZY-3" target="hjsQ7agd-JQysBf-I2ZY-2">
          <mxGeometry relative="1" as="geometry" />
        </mxCell>
        <mxCell id="hjsQ7agd-JQysBf-I2ZY-8" value="yes,update" style="edgeLabel;html=1;align=center;verticalAlign=middle;resizable=0;points=[];" vertex="1" connectable="0" parent="hjsQ7agd-JQysBf-I2ZY-6">
          <mxGeometry x="0.2" y="3" relative="1" as="geometry">
            <mxPoint as="offset" />
          </mxGeometry>
        </mxCell>
        <mxCell id="hjsQ7agd-JQysBf-I2ZY-7" style="edgeStyle=orthogonalEdgeStyle;rounded=0;orthogonalLoop=1;jettySize=auto;html=1;entryX=0.5;entryY=0;entryDx=0;entryDy=0;" edge="1" parent="WIyWlLk6GJQsqaUBKTNV-1" source="hjsQ7agd-JQysBf-I2ZY-3" target="hjsQ7agd-JQysBf-I2ZY-5">
          <mxGeometry relative="1" as="geometry" />
        </mxCell>
        <mxCell id="hjsQ7agd-JQysBf-I2ZY-9" value=",No, create" style="edgeLabel;html=1;align=center;verticalAlign=middle;resizable=0;points=[];" vertex="1" connectable="0" parent="hjsQ7agd-JQysBf-I2ZY-7">
          <mxGeometry x="0.3" y="4" relative="1" as="geometry">
            <mxPoint x="2" as="offset" />
          </mxGeometry>
        </mxCell>
        <mxCell id="hjsQ7agd-JQysBf-I2ZY-3" value="有Id?" style="strokeWidth=2;html=1;shape=mxgraph.flowchart.decision;whiteSpace=wrap;" vertex="1" parent="WIyWlLk6GJQsqaUBKTNV-1">
          <mxGeometry x="160" y="540" width="100" height="100" as="geometry" />
        </mxCell>
        <mxCell id="hjsQ7agd-JQysBf-I2ZY-12" style="edgeStyle=orthogonalEdgeStyle;rounded=0;orthogonalLoop=1;jettySize=auto;html=1;entryX=0.5;entryY=0;entryDx=0;entryDy=0;" edge="1" parent="WIyWlLk6GJQsqaUBKTNV-1" source="hjsQ7agd-JQysBf-I2ZY-5" target="hjsQ7agd-JQysBf-I2ZY-10">
          <mxGeometry relative="1" as="geometry" />
        </mxCell>
        <mxCell id="hjsQ7agd-JQysBf-I2ZY-5" value="appSvcDoMapper.create" style="rounded=1;whiteSpace=wrap;html=1;absoluteArcSize=1;arcSize=14;strokeWidth=2;" vertex="1" parent="WIyWlLk6GJQsqaUBKTNV-1">
          <mxGeometry x="280" y="720" width="100" height="100" as="geometry" />
        </mxCell>
        <mxCell id="hjsQ7agd-JQysBf-I2ZY-14" style="edgeStyle=orthogonalEdgeStyle;rounded=0;orthogonalLoop=1;jettySize=auto;html=1;exitX=0.5;exitY=1;exitDx=0;exitDy=0;entryX=0.5;entryY=0;entryDx=0;entryDy=0;entryPerimeter=0;" edge="1" parent="WIyWlLk6GJQsqaUBKTNV-1" source="hjsQ7agd-JQysBf-I2ZY-10" target="hjsQ7agd-JQysBf-I2ZY-13">
          <mxGeometry relative="1" as="geometry" />
        </mxCell>
        <mxCell id="hjsQ7agd-JQysBf-I2ZY-10" value="workloadSetting =&amp;nbsp;&lt;br&gt;appSvc.&lt;br&gt;getWorkloadSetting()" style="rounded=1;whiteSpace=wrap;html=1;absoluteArcSize=1;arcSize=14;strokeWidth=2;" vertex="1" parent="WIyWlLk6GJQsqaUBKTNV-1">
          <mxGeometry x="190" y="880" width="100" height="100" as="geometry" />
        </mxCell>
        <mxCell id="hjsQ7agd-JQysBf-I2ZY-17" style="edgeStyle=orthogonalEdgeStyle;rounded=0;orthogonalLoop=1;jettySize=auto;html=1;exitX=1;exitY=0.5;exitDx=0;exitDy=0;exitPerimeter=0;" edge="1" parent="WIyWlLk6GJQsqaUBKTNV-1" source="hjsQ7agd-JQysBf-I2ZY-13" target="hjsQ7agd-JQysBf-I2ZY-16">
          <mxGeometry relative="1" as="geometry" />
        </mxCell>
        <mxCell id="hjsQ7agd-JQysBf-I2ZY-18" value="No" style="edgeLabel;html=1;align=center;verticalAlign=middle;resizable=0;points=[];" vertex="1" connectable="0" parent="hjsQ7agd-JQysBf-I2ZY-17">
          <mxGeometry x="-0.1236" y="-1" relative="1" as="geometry">
            <mxPoint as="offset" />
          </mxGeometry>
        </mxCell>
        <mxCell id="hjsQ7agd-JQysBf-I2ZY-19" style="edgeStyle=orthogonalEdgeStyle;rounded=0;orthogonalLoop=1;jettySize=auto;html=1;exitX=0;exitY=0.5;exitDx=0;exitDy=0;exitPerimeter=0;entryX=0.5;entryY=0;entryDx=0;entryDy=0;" edge="1" parent="WIyWlLk6GJQsqaUBKTNV-1" source="hjsQ7agd-JQysBf-I2ZY-13" target="hjsQ7agd-JQysBf-I2ZY-15">
          <mxGeometry relative="1" as="geometry" />
        </mxCell>
        <mxCell id="hjsQ7agd-JQysBf-I2ZY-20" value="yes" style="edgeLabel;html=1;align=center;verticalAlign=middle;resizable=0;points=[];" vertex="1" connectable="0" parent="hjsQ7agd-JQysBf-I2ZY-19">
          <mxGeometry x="0.0218" y="-5" relative="1" as="geometry">
            <mxPoint as="offset" />
          </mxGeometry>
        </mxCell>
        <mxCell id="hjsQ7agd-JQysBf-I2ZY-13" value="workloadSetting=null?" style="strokeWidth=2;html=1;shape=mxgraph.flowchart.decision;whiteSpace=wrap;" vertex="1" parent="WIyWlLk6GJQsqaUBKTNV-1">
          <mxGeometry x="200" y="1030" width="100" height="100" as="geometry" />
        </mxCell>
        <mxCell id="hjsQ7agd-JQysBf-I2ZY-22" style="edgeStyle=orthogonalEdgeStyle;rounded=0;orthogonalLoop=1;jettySize=auto;html=1;exitX=0.5;exitY=1;exitDx=0;exitDy=0;entryX=0.5;entryY=0;entryDx=0;entryDy=0;" edge="1" parent="WIyWlLk6GJQsqaUBKTNV-1" source="hjsQ7agd-JQysBf-I2ZY-15" target="hjsQ7agd-JQysBf-I2ZY-21">
          <mxGeometry relative="1" as="geometry" />
        </mxCell>
        <mxCell id="hjsQ7agd-JQysBf-I2ZY-15" value="" style="rounded=1;whiteSpace=wrap;html=1;absoluteArcSize=1;arcSize=14;strokeWidth=2;" vertex="1" parent="WIyWlLk6GJQsqaUBKTNV-1">
          <mxGeometry x="120" y="1150" width="100" height="100" as="geometry" />
        </mxCell>
        <mxCell id="hjsQ7agd-JQysBf-I2ZY-23" style="edgeStyle=orthogonalEdgeStyle;rounded=0;orthogonalLoop=1;jettySize=auto;html=1;exitX=0.5;exitY=1;exitDx=0;exitDy=0;entryX=0.5;entryY=0;entryDx=0;entryDy=0;" edge="1" parent="WIyWlLk6GJQsqaUBKTNV-1" source="hjsQ7agd-JQysBf-I2ZY-16" target="hjsQ7agd-JQysBf-I2ZY-21">
          <mxGeometry relative="1" as="geometry" />
        </mxCell>
        <mxCell id="hjsQ7agd-JQysBf-I2ZY-16" value="workloadDo&lt;br&gt;=&lt;br&gt;workloadDoMapper&lt;br&gt;.getByExample()" style="rounded=1;whiteSpace=wrap;html=1;absoluteArcSize=1;arcSize=14;strokeWidth=2;" vertex="1" parent="WIyWlLk6GJQsqaUBKTNV-1">
          <mxGeometry x="290" y="1150" width="100" height="100" as="geometry" />
        </mxCell>
        <mxCell id="hjsQ7agd-JQysBf-I2ZY-27" style="edgeStyle=orthogonalEdgeStyle;rounded=0;orthogonalLoop=1;jettySize=auto;html=1;exitX=0.5;exitY=1;exitDx=0;exitDy=0;entryX=0.5;entryY=0;entryDx=0;entryDy=0;entryPerimeter=0;" edge="1" parent="WIyWlLk6GJQsqaUBKTNV-1" source="hjsQ7agd-JQysBf-I2ZY-21" target="hjsQ7agd-JQysBf-I2ZY-26">
          <mxGeometry relative="1" as="geometry" />
        </mxCell>
        <mxCell id="hjsQ7agd-JQysBf-I2ZY-21" value="给 workloadDo各个属性赋值" style="rounded=1;whiteSpace=wrap;html=1;absoluteArcSize=1;arcSize=14;strokeWidth=2;" vertex="1" parent="WIyWlLk6GJQsqaUBKTNV-1">
          <mxGeometry x="210" y="1320" width="100" height="100" as="geometry" />
        </mxCell>
        <mxCell id="hjsQ7agd-JQysBf-I2ZY-24" value="yes,update" style="edgeLabel;html=1;align=center;verticalAlign=middle;resizable=0;points=[];" vertex="1" connectable="0" parent="WIyWlLk6GJQsqaUBKTNV-1">
          <mxGeometry x="197" y="1580" as="geometry" />
        </mxCell>
        <mxCell id="hjsQ7agd-JQysBf-I2ZY-25" value=",No, create" style="edgeLabel;html=1;align=center;verticalAlign=middle;resizable=0;points=[];" vertex="1" connectable="0" parent="WIyWlLk6GJQsqaUBKTNV-1">
          <mxGeometry x="390" y="1570" as="geometry" />
        </mxCell>
        <mxCell id="hjsQ7agd-JQysBf-I2ZY-30" style="edgeStyle=orthogonalEdgeStyle;rounded=0;orthogonalLoop=1;jettySize=auto;html=1;exitX=0;exitY=0.5;exitDx=0;exitDy=0;exitPerimeter=0;entryX=0.5;entryY=0;entryDx=0;entryDy=0;" edge="1" parent="WIyWlLk6GJQsqaUBKTNV-1" source="hjsQ7agd-JQysBf-I2ZY-26" target="hjsQ7agd-JQysBf-I2ZY-28">
          <mxGeometry relative="1" as="geometry" />
        </mxCell>
        <mxCell id="hjsQ7agd-JQysBf-I2ZY-31" style="edgeStyle=orthogonalEdgeStyle;rounded=0;orthogonalLoop=1;jettySize=auto;html=1;exitX=1;exitY=0.5;exitDx=0;exitDy=0;exitPerimeter=0;" edge="1" parent="WIyWlLk6GJQsqaUBKTNV-1" source="hjsQ7agd-JQysBf-I2ZY-26" target="hjsQ7agd-JQysBf-I2ZY-29">
          <mxGeometry relative="1" as="geometry" />
        </mxCell>
        <mxCell id="hjsQ7agd-JQysBf-I2ZY-26" value="有Id?" style="strokeWidth=2;html=1;shape=mxgraph.flowchart.decision;whiteSpace=wrap;" vertex="1" parent="WIyWlLk6GJQsqaUBKTNV-1">
          <mxGeometry x="214" y="1460" width="100" height="100" as="geometry" />
        </mxCell>
        <mxCell id="hjsQ7agd-JQysBf-I2ZY-28" value="" style="rounded=1;whiteSpace=wrap;html=1;absoluteArcSize=1;arcSize=14;strokeWidth=2;" vertex="1" parent="WIyWlLk6GJQsqaUBKTNV-1">
          <mxGeometry x="110" y="1610" width="100" height="100" as="geometry" />
        </mxCell>
        <mxCell id="hjsQ7agd-JQysBf-I2ZY-29" value="workloadDoMapper.&lt;br&gt;insert()" style="rounded=1;whiteSpace=wrap;html=1;absoluteArcSize=1;arcSize=14;strokeWidth=2;" vertex="1" parent="WIyWlLk6GJQsqaUBKTNV-1">
          <mxGeometry x="350" y="1610" width="100" height="100" as="geometry" />
        </mxCell>
      </root>
    </mxGraphModel>
  </diagram>
</mxfile>
